<?xml version="1.0" standalone="no"?>
<!DOCTYPE svg PUBLIC "-//W3C//DTD SVG 20010904//EN"
 "http://www.w3.org/TR/2001/REC-SVG-20010904/DTD/svg10.dtd">
<svg version="1.0" xmlns="http://www.w3.org/2000/svg"
 width="521.000000pt" height="439.000000pt" viewBox="0 0 521.000000 439.000000"
 preserveAspectRatio="xMidYMid meet">

<g transform="translate(0.000000,439.000000) scale(0.100000,-0.100000)"
fill="#000000" stroke="none">
<path d="M2375 4350 c-45 -23 -302 -248 -1030 -903 -533 -480 -978 -887 -988
-905 -27 -47 -26 -119 2 -167 29 -50 186 -225 228 -254 62 -44 150 -37 213 16
l30 25 0 -461 0 -461 -28 0 c-95 0 -325 -92 -406 -162 -30 -27 -39 -42 -39
-66 0 -67 67 -93 128 -51 85 58 265 129 327 129 17 0 18 -27 18 -460 l0 -460
-304 0 -305 0 -13 57 c-7 32 -13 105 -12 163 1 116 18 195 65 298 35 78 36
102 6 130 -36 34 -81 29 -111 -11 -61 -80 -116 -282 -116 -426 0 -131 43 -309
82 -343 19 -17 152 -18 2478 -18 2326 0 2459 1 2479 18 31 26 71 178 78 297
13 241 -69 463 -236 638 -173 181 -370 267 -618 270 l-123 2 0 177 0 177 -26
20 c-33 26 -65 27 -95 2 l-24 -19 -3 -365 -3 -364 -62 -8 c-34 -3 -74 -9 -89
-12 l-28 -6 0 376 c0 390 -2 411 -43 455 -47 50 -72 57 -222 57 -150 0 -175
-6 -222 -57 -52 -55 -53 -67 -53 -508 l0 -410 -115 0 -114 0 -3 433 -3 434
-27 35 c-56 74 -50 73 -543 73 l-440 0 -44 -25 c-30 -17 -52 -40 -68 -69 -23
-44 -23 -44 -23 -463 l0 -418 -115 0 -115 0 0 417 c0 403 -1 418 -21 460 -15
30 -35 52 -67 71 -45 26 -53 27 -182 27 -157 0 -195 -12 -238 -78 l-27 -41 -3
-428 -3 -428 -89 0 -90 0 0 768 0 767 756 679 c416 373 762 679 769 680 7 0
353 -304 769 -678 l756 -678 0 -213 c0 -200 1 -214 21 -239 26 -33 79 -36 109
-6 18 18 20 33 20 165 0 134 6 166 26 134 11 -18 87 -49 121 -49 68 0 107 27
217 150 110 123 136 165 136 223 0 71 -32 105 -465 493 -231 207 -430 380
-442 385 -49 19 -111 -36 -99 -86 4 -17 148 -152 424 -400 229 -207 418 -383
420 -393 3 -16 -170 -222 -186 -222 -4 0 -59 46 -122 103 -438 393 -1602 1436
-1633 1464 -77 69 -1 127 -997 -767 -618 -555 -895 -798 -904 -793 -30 17
-186 199 -183 214 1 12 1651 1503 1910 1726 43 38 95 50 147 34 28 -8 151
-113 474 -404 241 -215 449 -396 462 -402 53 -20 110 44 88 100 -13 34 -878
809 -934 837 -32 17 -67 24 -125 26 -73 3 -85 1 -140 -28z m-827 -3182 l2
-408 -120 0 -120 0 0 403 c0 222 3 407 7 411 4 3 57 5 117 4 l111 -3 3 -407z
m1380 282 l2 -125 -425 -425 -425 -425 0 537 c0 295 3 544 6 552 6 15 49 16
423 14 l416 -3 3 -125z m770 -274 c2 -313 -1 -401 -10 -408 -7 -4 -59 -8 -115
-8 l-103 0 0 410 0 411 113 -3 112 -3 3 -399z m774 -105 c250 -64 447 -264
515 -521 21 -80 23 -233 4 -317 l-14 -63 -186 0 -186 0 0 108 c-1 161 -47 283
-154 405 -42 47 -170 133 -221 148 l-40 12 0 124 0 123 103 0 c70 0 129 -6
179 -19z m-337 -373 c114 -29 220 -119 275 -233 28 -59 34 -84 38 -157 2 -48
2 -99 -2 -113 l-6 -25 -424 0 -424 0 -7 65 c-9 81 14 190 54 261 16 28 55 74
85 102 116 106 255 140 411 100z m-2207 -232 l3 -140 -78 -78 -78 -78 -397 0
-398 0 0 220 0 220 473 -2 472 -3 3 -139z"/>
<path d="M2380 2942 c-205 -54 -360 -255 -360 -467 0 -167 108 -348 256 -427
189 -102 430 -64 577 91 183 192 183 480 0 672 -121 127 -299 176 -473 131z"/>
</g>
</svg>
